<mxfile host="app.diagrams.net" modified="2023-09-14T10:12:53.184Z" agent="Mozilla/5.0 (Windows NT 10.0; Win64; x64) AppleWebKit/537.36 (KHTML, like Gecko) Chrome/116.0.0.0 Safari/537.36" etag="BqLTeiFwUuVKo852FK8O" version="21.7.4" type="device">
  <diagram name="Trang-1" id="U2-P0r6FoNH8urJ07C5J">
    <mxGraphModel dx="1035" dy="562" grid="1" gridSize="10" guides="1" tooltips="1" connect="1" arrows="1" fold="1" page="1" pageScale="1" pageWidth="827" pageHeight="1169" math="0" shadow="0">
      <root>
        <mxCell id="0" />
        <mxCell id="1" parent="0" />
        <mxCell id="V7NHBRY_rvMzs98ntjnE-6" style="edgeStyle=orthogonalEdgeStyle;rounded=0;orthogonalLoop=1;jettySize=auto;html=1;entryX=0.5;entryY=0;entryDx=0;entryDy=0;" edge="1" parent="1" source="V7NHBRY_rvMzs98ntjnE-1" target="V7NHBRY_rvMzs98ntjnE-3">
          <mxGeometry relative="1" as="geometry" />
        </mxCell>
        <mxCell id="V7NHBRY_rvMzs98ntjnE-7" style="edgeStyle=orthogonalEdgeStyle;rounded=0;orthogonalLoop=1;jettySize=auto;html=1;" edge="1" parent="1" source="V7NHBRY_rvMzs98ntjnE-1" target="V7NHBRY_rvMzs98ntjnE-4">
          <mxGeometry relative="1" as="geometry" />
        </mxCell>
        <mxCell id="V7NHBRY_rvMzs98ntjnE-8" style="edgeStyle=orthogonalEdgeStyle;rounded=0;orthogonalLoop=1;jettySize=auto;html=1;entryX=0.5;entryY=0;entryDx=0;entryDy=0;" edge="1" parent="1" source="V7NHBRY_rvMzs98ntjnE-1" target="V7NHBRY_rvMzs98ntjnE-5">
          <mxGeometry relative="1" as="geometry" />
        </mxCell>
        <mxCell id="V7NHBRY_rvMzs98ntjnE-1" value="Ứng dụng gia sư trực tuyến" style="rounded=0;whiteSpace=wrap;html=1;" vertex="1" parent="1">
          <mxGeometry x="294" y="140" width="186" height="60" as="geometry" />
        </mxCell>
        <mxCell id="V7NHBRY_rvMzs98ntjnE-3" value="Admin&amp;nbsp;&lt;br&gt;Trực tiếp quản lý ứng dụng, thực hiện các công việc như thông báo chung , tạo các lớp học thêm , quản lý tất cả thông tin liên quan đến account..&lt;br&gt;&lt;br&gt;&lt;div style=&quot;text-align: left;&quot;&gt;&amp;nbsp; -Giao diện App sẽ giống 1 CMS&lt;/div&gt;" style="rounded=0;whiteSpace=wrap;html=1;" vertex="1" parent="1">
          <mxGeometry x="30" y="250" width="190" height="120" as="geometry" />
        </mxCell>
        <mxCell id="V7NHBRY_rvMzs98ntjnE-4" value="-Gia sư: Mỗi gia sư khi đăng kí dạy trung tâm sẽ được cấp 1 tài khoản gia sư . Gia sư sẽ thực hiện quản lý lớp học của môn mình dạy...&lt;br&gt;&lt;br&gt;&lt;div style=&quot;text-align: left;&quot;&gt;- Giao diện sẽ thêm một tab bottom quản lý lớp&lt;/div&gt;" style="rounded=0;whiteSpace=wrap;html=1;" vertex="1" parent="1">
          <mxGeometry x="284" y="250" width="206" height="120" as="geometry" />
        </mxCell>
        <mxCell id="V7NHBRY_rvMzs98ntjnE-5" value="-Học viên: Sẽ thực hiện đăng kí tài khoản app ,sẽ tham gia vào các môn học , được đánh giá và quản lý các vấn đề học tập của bản thân&lt;br&gt;&lt;br&gt;-Giao diện xóa bỏ tab quản lý lớp" style="rounded=0;whiteSpace=wrap;html=1;align=left;" vertex="1" parent="1">
          <mxGeometry x="560" y="250" width="190" height="120" as="geometry" />
        </mxCell>
      </root>
    </mxGraphModel>
  </diagram>
</mxfile>
